<svg width="275" height="185" viewBox="0 0 275 185" fill="none" xmlns="http://www.w3.org/2000/svg">
<g clip-path="url(#clip0_1367_4821)">
<path d="M168.3 24.09C168.633 21.9838 169.788 20.0959 171.513 18.8417C173.237 17.5875 175.39 17.0696 177.496 17.402L244.948 28.05C246.735 28.3306 248.346 29.2851 249.451 30.7172C250.556 32.1494 251.07 33.9505 250.888 35.75L240.427 134.431C240.353 135.127 240.139 135.802 239.799 136.414C239.459 137.026 238.999 137.564 238.447 137.995C237.895 138.426 237.262 138.741 236.585 138.923C235.909 139.104 235.203 139.148 234.509 139.051L156.915 128.238C156.262 128.15 155.634 127.931 155.067 127.596C154.5 127.261 154.005 126.816 153.613 126.288C153.22 125.759 152.937 125.157 152.781 124.517C152.625 123.877 152.598 123.212 152.702 122.562L168.3 24.09Z" fill="#262262"/>
<path d="M174.79 18.535C174.839 18.2035 174.959 17.8865 175.141 17.6055C175.324 17.3245 175.564 17.0861 175.847 16.9065C176.13 16.727 176.449 16.6105 176.78 16.565C177.112 16.5196 177.45 16.5461 177.771 16.643C186.791 19.349 217.888 28.215 244.42 30.338C244.996 30.3938 245.527 30.6745 245.898 31.1193C246.269 31.5641 246.449 32.1371 246.4 32.714L236.104 131.857C236.032 132.505 235.708 133.099 235.202 133.511C234.695 133.923 234.048 134.119 233.398 134.057C222.266 132.957 176.462 128.326 160.534 124.08C160.067 123.953 159.663 123.659 159.399 123.253C159.135 122.847 159.03 122.358 159.104 121.88L174.79 18.535Z" fill="#556BBC"/>
<path d="M175.483 21.1642C175.524 20.842 175.635 20.5329 175.809 20.2588C175.983 19.9848 176.216 19.7527 176.49 19.5792C176.765 19.4057 177.074 19.2951 177.396 19.2553C177.719 19.2156 178.046 19.2476 178.354 19.3492C187.033 21.9562 216.964 30.4922 242.495 32.5492C242.771 32.5698 243.04 32.6455 243.286 32.772C243.532 32.8984 243.751 33.073 243.928 33.2853C244.106 33.4976 244.239 33.7434 244.319 34.0081C244.4 34.2728 244.427 34.551 244.398 34.8262L234.498 130.24C234.431 130.869 234.119 131.447 233.629 131.846C233.138 132.246 232.51 132.436 231.88 132.374C221.177 131.274 177.1 126.874 161.766 122.771C161.317 122.647 160.928 122.363 160.675 121.971C160.421 121.58 160.32 121.109 160.391 120.648L175.483 21.1642Z" fill="white"/>
<g opacity="0.2">
<path d="M223.069 38.3349C223.619 38.4229 224.169 38.1919 224.169 37.8179C224.169 37.4439 223.806 37.0479 223.256 36.9489L199.397 32.7469C199.286 32.7146 199.168 32.7121 199.055 32.7398C198.943 32.7675 198.84 32.8243 198.756 32.9046C198.672 32.9849 198.611 33.0858 198.579 33.1971C198.547 33.3085 198.544 33.4264 198.572 33.5389C198.645 33.8143 198.795 34.0634 199.003 34.258C199.211 34.4525 199.47 34.5845 199.749 34.6389L223.069 38.3349Z" fill="#262262"/>
</g>
<g opacity="0.2">
<path d="M198.792 36.5311C198.68 36.4949 198.561 36.4897 198.446 36.516C198.332 36.5423 198.227 36.5991 198.142 36.6803C198.058 36.7616 197.997 36.8643 197.966 36.9774C197.935 37.0906 197.935 37.2101 197.967 37.3231C198.036 37.6002 198.184 37.8514 198.393 38.0465C198.602 38.2417 198.863 38.3724 199.144 38.4231L222.475 42.1081C223.025 42.1961 223.509 41.9651 223.575 41.5801C223.641 41.1951 223.212 40.8211 222.662 40.7221L198.792 36.5311Z" fill="#262262"/>
</g>
<g opacity="0.2">
<path d="M198.187 40.3704C198.076 40.3352 197.959 40.3303 197.845 40.3562C197.732 40.3821 197.628 40.4378 197.544 40.5175C197.46 40.5973 197.399 40.6981 197.367 40.8096C197.335 40.9211 197.333 41.0391 197.362 41.1514C197.434 41.4273 197.583 41.6771 197.791 41.8718C198 42.0666 198.259 42.1982 198.539 42.2514L221.87 45.9364C222.42 46.0244 222.904 45.7824 222.97 45.4084C223.036 45.0344 222.607 44.6494 222.057 44.5504L198.187 40.3704Z" fill="#262262"/>
</g>
<g opacity="0.2">
<path d="M235.862 66.7479C236.412 66.8359 236.885 66.5939 236.962 66.2199C237.039 65.8459 236.577 65.4609 236.027 65.3619L179.476 55.9789C178.926 55.8909 178.695 56.2099 178.97 56.7049L179.135 56.9909C179.481 57.521 180.023 57.8927 180.642 58.0249L235.862 66.7479Z" fill="#262262"/>
</g>
<g opacity="0.2">
<path d="M178.838 59.7631C178.288 59.6751 178.057 59.9941 178.332 60.4781L178.497 60.7751C178.667 61.0384 178.888 61.2654 179.147 61.4428C179.406 61.6203 179.697 61.7448 180.004 61.8091L235.268 70.5321C235.818 70.6201 236.291 70.3781 236.368 70.0041C236.445 69.6301 235.983 69.2451 235.433 69.1461L178.838 59.7631Z" fill="#262262"/>
</g>
<g opacity="0.2">
<path d="M237.325 55.6488C237.875 55.7258 238.348 55.4948 238.425 55.1098C238.502 54.7248 238.029 54.3508 237.479 54.2628L180.928 44.8798C180.378 44.7918 180.147 45.1108 180.422 45.5948L180.587 45.8808C180.753 46.1548 180.972 46.3931 181.23 46.5819C181.489 46.7707 181.783 46.9063 182.094 46.9808L237.325 55.6488Z" fill="#262262"/>
</g>
<g opacity="0.2">
<path d="M180.301 48.6641C179.751 48.5651 179.52 48.8951 179.795 49.3791L179.96 49.6651C180.13 49.93 180.351 50.1587 180.609 50.3381C180.868 50.5174 181.159 50.6438 181.467 50.7101L236.731 59.4221C237.281 59.5101 237.754 59.2791 237.831 58.8941C237.908 58.5091 237.446 58.1351 236.896 58.0471L180.301 48.6641Z" fill="#262262"/>
</g>
<g opacity="0.38">
<path d="M183.766 75.5263L178.959 74.7232C178.637 74.6803 178.342 74.5214 178.13 74.2763C177.917 74.0312 177.801 73.7168 177.804 73.3923L178.024 69.2893C178.03 69.1676 178.06 69.0484 178.113 68.9387C178.166 68.8291 178.24 68.7313 178.332 68.6513C178.443 68.5584 178.571 68.4883 178.708 68.4449C178.846 68.4015 178.991 68.3856 179.135 68.3982C179.553 68.3982 180.125 68.4752 180.741 68.5192C182.094 68.6182 183.634 68.7283 184.536 68.8603C184.838 68.8953 185.119 69.0283 185.338 69.239C185.556 69.4496 185.7 69.7262 185.746 70.0263C185.736 71.5705 185.556 73.1089 185.207 74.6133C185.134 74.9234 184.942 75.1926 184.672 75.3631C184.403 75.5337 184.078 75.5923 183.766 75.5263ZM179.091 68.8053C179.001 68.7933 178.909 68.8008 178.821 68.8273C178.734 68.8539 178.653 68.8989 178.585 68.9593C178.533 69.0028 178.491 69.0565 178.461 69.117C178.43 69.1776 178.413 69.2437 178.409 69.3113L178.189 73.4143C178.193 73.6405 178.278 73.8577 178.43 74.0256C178.582 74.1935 178.789 74.3007 179.014 74.3273L183.821 75.1303C184.028 75.1769 184.245 75.1409 184.426 75.03C184.607 74.919 184.737 74.7419 184.789 74.5363C185.132 73.0722 185.31 71.574 185.317 70.0703C185.283 69.8612 185.182 69.6689 185.029 69.5221C184.876 69.3753 184.68 69.2821 184.47 69.2563C183.59 69.1353 181.995 69.0143 180.708 68.9263L179.102 68.8053H179.091Z" fill="#262262"/>
<g opacity="0.6">
<path d="M189.266 72.0499C189.146 72.0203 189.022 72.0212 188.903 72.0523C188.784 72.0834 188.674 72.1439 188.585 72.2281C188.495 72.3123 188.428 72.4176 188.389 72.5344C188.351 72.6512 188.342 72.7758 188.364 72.8969V73.3809C188.401 73.6651 188.528 73.9301 188.726 74.1377C188.923 74.3453 189.182 74.4847 189.464 74.5358L232.771 80.9049C233.016 80.9501 233.269 80.8969 233.475 80.7568C233.68 80.6168 233.823 80.4012 233.871 80.1568C233.899 79.8945 233.822 79.6318 233.657 79.4259C233.492 79.2199 233.253 79.0873 232.991 79.0568L189.266 72.0499Z" fill="#262262"/>
</g>
<path d="M184.921 67.4191L181.731 72.2921C181.71 72.3313 181.68 72.3641 181.642 72.387C181.604 72.4099 181.561 72.422 181.516 72.422C181.472 72.422 181.429 72.4099 181.391 72.387C181.353 72.3641 181.322 72.3313 181.302 72.2921L180.631 70.4331C180.559 70.2449 180.416 70.0929 180.232 70.0104C180.049 69.9278 179.84 69.9216 179.652 69.9931C179.472 70.0667 179.325 70.2032 179.238 70.3772C179.151 70.5512 179.13 70.7509 179.179 70.9391C179.428 72.2994 180.163 73.5228 181.247 74.3821C183.458 72.7716 184.951 70.3589 185.405 67.6611C185.437 67.5969 185.442 67.5226 185.42 67.4545C185.397 67.3865 185.348 67.3302 185.284 67.2981C185.22 67.266 185.145 67.2607 185.077 67.2834C185.009 67.3061 184.953 67.3549 184.921 67.4191Z" fill="#ED1C24"/>
<path d="M182.138 85.8441L177.331 85.0411C177.019 84.9862 176.737 84.8221 176.536 84.5782C176.334 84.3343 176.226 84.0265 176.231 83.7101L176.451 79.6071C176.456 79.4855 176.487 79.3663 176.54 79.2566C176.593 79.147 176.667 79.0492 176.759 78.9691C176.87 78.8763 176.997 78.8062 177.135 78.7628C177.273 78.7194 177.418 78.7035 177.562 78.7161L179.168 78.8481C180.521 78.9361 182.061 79.0461 182.963 79.1781C183.264 79.2131 183.546 79.3462 183.765 79.5568C183.983 79.7675 184.127 80.0441 184.173 80.3441C184.163 81.8883 183.982 83.4267 183.634 84.9311C183.598 85.0905 183.53 85.2411 183.435 85.3739C183.339 85.5067 183.219 85.6189 183.079 85.7041C182.939 85.7892 182.784 85.8455 182.623 85.8695C182.461 85.8936 182.296 85.885 182.138 85.8441ZM177.463 79.1231C177.372 79.1111 177.28 79.1187 177.193 79.1452C177.106 79.1718 177.025 79.2168 176.957 79.2771C176.903 79.3192 176.86 79.3726 176.83 79.4334C176.799 79.4943 176.782 79.5611 176.781 79.6291L176.561 83.7321C176.565 83.9584 176.65 84.1756 176.802 84.3435C176.954 84.5114 177.161 84.6185 177.386 84.6451L182.193 85.4481C182.398 85.4952 182.614 85.4607 182.795 85.352C182.975 85.2432 183.106 85.0687 183.161 84.8651C183.504 83.3973 183.681 81.8955 183.689 80.3881C183.653 80.1798 183.552 79.9884 183.399 79.8419C183.247 79.6954 183.051 79.6016 182.842 79.5741C181.962 79.4531 180.367 79.3321 179.08 79.2441L177.474 79.1231H177.463Z" fill="#262262"/>
<path opacity="0.6" d="M177.914 79.6071C178.937 79.6951 181.214 79.8161 182.215 79.9701C182.422 79.9917 182.616 80.081 182.767 80.2242C182.918 80.3674 183.018 80.5565 183.051 80.7621C183.039 81.9804 182.895 83.1938 182.622 84.3811C182.57 84.5867 182.439 84.7638 182.259 84.8748C182.078 84.9857 181.861 85.0217 181.654 84.9751L177.815 84.3371C177.597 84.3103 177.397 84.2051 177.251 84.0411C177.105 83.877 177.024 83.6655 177.023 83.4461L177.199 80.1461C177.21 80.0634 177.237 79.9837 177.279 79.9116C177.321 79.8396 177.377 79.7766 177.443 79.7264C177.51 79.6762 177.586 79.6398 177.667 79.6193C177.747 79.5988 177.832 79.5947 177.914 79.6071Z" fill="#262262"/>
<g opacity="0.6">
<path d="M187.638 82.4121C187.519 82.3826 187.394 82.3835 187.275 82.4146C187.156 82.4457 187.046 82.5062 186.957 82.5904C186.867 82.6746 186.8 82.7799 186.761 82.8967C186.723 83.0135 186.714 83.1381 186.736 83.2592L186.791 83.7432C186.828 84.0274 186.955 84.2924 187.153 84.5C187.35 84.7076 187.609 84.847 187.891 84.8981L231.209 91.2781C231.454 91.3146 231.704 91.2564 231.909 91.1155C232.113 90.9746 232.256 90.7615 232.309 90.5191C232.334 90.2574 232.256 89.9962 232.092 89.7909C231.928 89.5856 231.69 89.4523 231.429 89.4191L187.638 82.4121Z" fill="#262262"/>
</g>
<path d="M180.51 96.1619L175.703 95.3589C175.383 95.3162 175.09 95.1588 174.877 94.916C174.665 94.6732 174.548 94.3615 174.548 94.0389L174.757 89.9249C174.778 89.6794 174.892 89.4512 175.076 89.2869C175.301 89.1033 175.59 89.0163 175.879 89.0449L177.485 89.1659C178.772 89.2539 180.378 89.3639 181.28 89.4959C181.581 89.5309 181.863 89.6639 182.082 89.8746C182.3 90.0852 182.444 90.3618 182.49 90.6619C182.48 92.2061 182.299 93.7445 181.951 95.2489C181.877 95.559 181.685 95.8282 181.416 95.9988C181.147 96.1694 180.822 96.2279 180.51 96.1619ZM181.225 89.9029C180.345 89.7819 178.75 89.6609 177.463 89.5729L175.857 89.4519C175.766 89.4399 175.674 89.4474 175.587 89.474C175.5 89.5005 175.419 89.5455 175.351 89.6059C175.297 89.648 175.254 89.7014 175.224 89.7622C175.193 89.823 175.176 89.8899 175.175 89.9579L174.9 94.0499C174.904 94.2761 174.989 94.4933 175.141 94.6612C175.293 94.8291 175.5 94.9363 175.725 94.9629L180.532 95.7659C180.742 95.8118 180.961 95.7728 181.143 95.6574C181.324 95.542 181.453 95.3596 181.5 95.1499C181.843 93.6821 182.021 92.1803 182.028 90.6729C181.989 90.4775 181.892 90.2988 181.748 90.161C181.604 90.0232 181.422 89.9331 181.225 89.9029Z" fill="#262262"/>
<path opacity="0.6" d="M176.286 89.9249C177.309 90.0129 179.586 90.1339 180.587 90.2879C180.793 90.3113 180.987 90.4013 181.137 90.5441C181.288 90.687 181.389 90.8751 181.423 91.0799C181.411 92.2982 181.267 93.5116 180.994 94.6989C180.942 94.9051 180.812 95.0832 180.632 95.1959C180.451 95.3086 180.234 95.3473 180.026 95.3039L176.187 94.6549C175.969 94.6282 175.769 94.5229 175.623 94.3589C175.477 94.1949 175.396 93.9834 175.395 93.764L175.571 90.464C175.582 90.3813 175.609 90.3016 175.651 90.2295C175.693 90.1574 175.749 90.0945 175.815 90.0443C175.882 89.9941 175.958 89.9577 176.039 89.9372C176.119 89.9167 176.204 89.9125 176.286 89.9249Z" fill="#262262"/>
<g opacity="0.6">
<path d="M186.01 92.73C185.891 92.7005 185.766 92.7014 185.647 92.7325C185.528 92.7636 185.418 92.824 185.329 92.9082C185.239 92.9924 185.172 93.0978 185.133 93.2146C185.095 93.3314 185.086 93.456 185.108 93.577L185.163 94.061C185.2 94.3452 185.327 94.6103 185.525 94.8179C185.722 95.0254 185.981 95.1649 186.263 95.216L229.581 101.596C229.826 101.632 230.076 101.574 230.281 101.433C230.485 101.293 230.628 101.079 230.681 100.837C230.696 100.707 230.686 100.575 230.65 100.449C230.613 100.323 230.553 100.206 230.471 100.103C230.389 100.001 230.288 99.9158 230.173 99.853C230.058 99.7901 229.931 99.7507 229.801 99.737L186.01 92.73Z" fill="#262262"/>
</g>
<path d="M178.882 106.48L174.075 105.677C173.754 105.637 173.459 105.48 173.247 105.237C173.034 104.994 172.917 104.681 172.92 104.357L173.129 100.243C173.15 99.9977 173.264 99.7695 173.448 99.6052C173.673 99.4217 173.962 99.3347 174.251 99.3632L175.857 99.4842C177.144 99.5722 178.75 99.6932 179.641 99.8142C179.944 99.8488 180.227 99.9814 180.448 100.192C180.668 100.402 180.814 100.679 180.862 100.98C180.852 102.524 180.672 104.063 180.323 105.567C180.249 105.877 180.058 106.147 179.788 106.317C179.519 106.488 179.194 106.546 178.882 106.48ZM179.597 100.221C178.717 100.1 177.122 99.9792 175.835 99.8912L174.229 99.7702C174.139 99.7582 174.047 99.7658 173.959 99.7923C173.872 99.8189 173.791 99.8639 173.723 99.9242C173.67 99.9663 173.626 100.02 173.596 100.081C173.565 100.141 173.549 100.208 173.547 100.276L173.327 104.39C173.331 104.615 173.417 104.831 173.569 104.997C173.721 105.163 173.928 105.268 174.152 105.292L178.959 106.095C179.164 106.142 179.38 106.108 179.561 105.999C179.741 105.89 179.872 105.716 179.927 105.512C180.271 104.044 180.448 102.543 180.455 101.035C180.422 100.824 180.32 100.629 180.165 100.482C180.009 100.335 179.81 100.243 179.597 100.221Z" fill="#262262"/>
<path opacity="0.6" d="M174.658 100.243C175.681 100.331 177.958 100.463 178.959 100.606C179.165 100.63 179.358 100.72 179.509 100.862C179.66 101.005 179.76 101.193 179.795 101.398C179.783 102.617 179.639 103.83 179.366 105.017C179.314 105.223 179.184 105.402 179.003 105.514C178.823 105.627 178.606 105.666 178.398 105.622L174.559 104.973C174.341 104.947 174.14 104.841 173.995 104.677C173.849 104.513 173.768 104.302 173.767 104.082L173.943 100.782C173.954 100.7 173.981 100.62 174.023 100.548C174.065 100.476 174.121 100.413 174.187 100.363C174.254 100.312 174.33 100.276 174.41 100.256C174.491 100.235 174.575 100.231 174.658 100.243Z" fill="#262262"/>
<g opacity="0.6">
<path d="M184.382 103.048C184.262 103.018 184.138 103.019 184.019 103.05C183.9 103.081 183.79 103.142 183.701 103.226C183.611 103.31 183.544 103.416 183.505 103.532C183.467 103.649 183.458 103.774 183.48 103.895V104.379C183.517 104.663 183.644 104.928 183.842 105.136C184.039 105.343 184.298 105.483 184.58 105.534L227.898 111.914C228.143 111.95 228.393 111.892 228.598 111.751C228.802 111.61 228.945 111.397 228.998 111.155C229.013 111.025 229.002 110.893 228.966 110.767C228.93 110.641 228.87 110.523 228.788 110.421C228.706 110.319 228.604 110.234 228.489 110.171C228.374 110.108 228.248 110.069 228.118 110.055L184.382 103.048Z" fill="#262262"/>
</g>
</g>
<path d="M217.492 10.0428C216.753 9.24513 215.839 8.63089 214.821 8.24896C213.803 7.86703 212.71 7.72795 211.629 7.8428C210.93 7.92945 210.284 8.25894 209.804 8.77368C209.323 9.28841 209.039 9.95566 209 10.6588L208.527 17.7868L216.084 19.6788C216.084 19.6788 221.749 14.1238 217.492 10.0428ZM213.224 15.1798C212.845 15.1226 212.491 14.9539 212.207 14.6951C211.924 14.4363 211.724 14.0992 211.632 13.7265C211.541 13.3538 211.563 12.9623 211.694 12.6018C211.826 12.2413 212.061 11.928 212.371 11.7018C212.681 11.4755 213.051 11.3465 213.435 11.331C213.818 11.3156 214.198 11.4144 214.525 11.6151C214.852 11.8157 215.112 12.109 215.272 12.4577C215.432 12.8065 215.485 13.1949 215.424 13.5738C215.385 13.8238 215.297 14.0636 215.166 14.2796C215.034 14.4957 214.861 14.6836 214.657 14.8328C214.453 14.9819 214.221 15.0894 213.975 15.1489C213.729 15.2084 213.474 15.2189 213.224 15.1798Z" fill="#262262"/>
<path d="M209.781 14.9713C209.733 14.9632 209.689 14.9373 209.658 14.8986C209.628 14.86 209.613 14.8114 209.616 14.7623L209.693 13.6623C209.693 13.6098 209.714 13.5594 209.751 13.5223C209.788 13.4851 209.839 13.4643 209.891 13.4643C209.944 13.4643 209.994 13.4851 210.031 13.5223C210.068 13.5594 210.089 13.6098 210.089 13.6623L210.012 14.7623C210.012 14.7888 210.007 14.815 209.996 14.8393C209.985 14.8635 209.97 14.8852 209.95 14.9029C209.93 14.9206 209.907 14.9339 209.882 14.9419C209.856 14.9499 209.83 14.9524 209.803 14.9493L209.781 14.9713ZM209.924 12.7713C209.877 12.761 209.834 12.7346 209.804 12.6964C209.774 12.6583 209.758 12.6109 209.759 12.5623L209.814 11.6933C209.851 11.0253 210.12 10.3912 210.573 9.89946C211.027 9.40775 211.637 9.08915 212.3 8.99827C213.255 8.8654 214.228 8.97901 215.127 9.32827C215.175 9.34794 215.214 9.38471 215.236 9.43146C215.259 9.47821 215.263 9.5316 215.248 9.58127C215.226 9.63006 215.188 9.66925 215.139 9.69152C215.09 9.71378 215.035 9.7176 214.984 9.70227C214.147 9.38176 213.244 9.27588 212.355 9.39427C211.786 9.47201 211.261 9.74466 210.87 10.1658C210.479 10.587 210.246 11.1306 210.21 11.7043L210.144 12.5623C210.144 12.5888 210.139 12.615 210.128 12.6393C210.117 12.6635 210.102 12.6852 210.082 12.7029C210.062 12.7206 210.039 12.7339 210.014 12.7419C209.988 12.7499 209.962 12.7524 209.935 12.7493L209.924 12.7713Z" fill="white"/>
<path d="M197.384 20.6799L197.945 17.1489C197.993 16.8612 198.097 16.5859 198.253 16.339C198.408 16.092 198.61 15.8784 198.849 15.7105C199.087 15.5427 199.357 15.4239 199.642 15.3611C199.927 15.2984 200.221 15.2928 200.508 15.3449L224.708 20.0309C225.229 20.1276 225.694 20.4165 226.012 20.8403C226.33 21.2641 226.477 21.7918 226.424 22.3189L226.094 25.7399L197.384 20.6799Z" fill="#262262"/>
<path d="M206.107 17.6111C206.055 17.6005 206.008 17.5713 205.975 17.5287C205.943 17.4862 205.927 17.4334 205.931 17.3801C205.935 17.3539 205.944 17.3288 205.958 17.3063C205.972 17.2837 205.99 17.2642 206.012 17.2488C206.033 17.2334 206.058 17.2225 206.083 17.2167C206.109 17.2109 206.136 17.2104 206.162 17.2151L207.262 17.3801C207.288 17.3837 207.313 17.3924 207.336 17.4057C207.358 17.419 207.378 17.4366 207.394 17.4575C207.41 17.4785 207.421 17.5023 207.428 17.5277C207.435 17.5531 207.436 17.5796 207.432 17.6056C207.429 17.6316 207.42 17.6566 207.407 17.6793C207.394 17.7019 207.376 17.7217 207.355 17.7375C207.334 17.7534 207.31 17.7649 207.285 17.7715C207.259 17.7781 207.233 17.7797 207.207 17.7761L206.162 17.6111H206.107Z" fill="white"/>
<path d="M198.869 19.8C198.819 19.7872 198.775 19.757 198.744 19.7147C198.714 19.6724 198.7 19.6208 198.704 19.569L198.935 18.139C198.976 17.8712 199.071 17.6144 199.213 17.3835C199.354 17.1527 199.541 16.9525 199.761 16.7947C199.982 16.6369 200.231 16.5247 200.495 16.4646C200.76 16.4046 201.033 16.3979 201.3 16.445L205.15 17.05C205.176 17.054 205.201 17.0632 205.224 17.0771C205.246 17.0909 205.266 17.1092 205.281 17.1307C205.297 17.1522 205.308 17.1766 205.313 17.2025C205.319 17.2283 205.32 17.255 205.315 17.281C205.304 17.3326 205.275 17.3782 205.232 17.4088C205.189 17.4394 205.136 17.4527 205.084 17.446L201.234 16.83C200.806 16.7666 200.37 16.874 200.02 17.1292C199.67 17.3843 199.434 17.7668 199.364 18.194L199.133 19.624C199.125 19.6776 199.096 19.7259 199.053 19.7587C199.01 19.7916 198.956 19.8064 198.902 19.8H198.869Z" fill="white"/>
<path d="M186.714 17.6773L235.675 25.3773C236.485 25.4646 237.24 25.8284 237.813 26.4075C238.386 26.9865 238.742 27.7455 238.821 28.5563V28.7653C238.802 29.1912 238.689 29.6076 238.49 29.9847C238.292 30.3619 238.012 30.6904 237.671 30.9469C237.331 31.2033 236.938 31.3814 236.52 31.4682C236.103 31.5551 235.672 31.5486 235.257 31.4493L185.031 23.5183C184.769 23.4974 184.514 23.4224 184.283 23.2982C184.051 23.1739 183.848 23.0031 183.686 22.7964C183.524 22.5898 183.406 22.3517 183.34 22.0973C183.275 21.843 183.262 21.5777 183.304 21.3183L183.722 19.3823C183.913 18.7729 184.328 18.2585 184.883 17.9422C185.438 17.626 186.092 17.5313 186.714 17.6773Z" fill="#262262"/>
<path d="M184.921 67.4191L181.731 72.2921C181.71 72.3313 181.68 72.3641 181.642 72.387C181.604 72.4099 181.561 72.422 181.516 72.422C181.472 72.422 181.429 72.4099 181.391 72.387C181.353 72.3641 181.322 72.3313 181.302 72.2921L180.631 70.4331C180.559 70.2449 180.416 70.0929 180.232 70.0104C180.049 69.9278 179.84 69.9216 179.652 69.9931C179.472 70.0667 179.325 70.2032 179.238 70.3772C179.151 70.5512 179.13 70.7509 179.179 70.9391C179.428 72.2994 180.163 73.5228 181.247 74.3821C183.458 72.7716 184.951 70.3589 185.405 67.6611C185.437 67.5969 185.442 67.5226 185.42 67.4545C185.397 67.3865 185.348 67.3302 185.284 67.2981C185.22 67.266 185.145 67.2607 185.077 67.2834C185.009 67.3061 184.953 67.3549 184.921 67.4191Z" fill="#ED1C24"/>
<path d="M131.879 128.876C131.879 128.876 135.773 115.181 138.567 111.936C142.065 107.877 146.718 105.666 148.17 107.14C149.622 108.614 146.135 128.876 146.135 128.876H131.879Z" fill="#0C0C3D"/>
<path d="M185.647 128.876C185.647 128.876 189.541 115.181 192.335 111.936C195.833 107.877 200.486 105.666 201.938 107.14C203.39 108.614 199.903 128.876 199.903 128.876H185.647Z" fill="#0C0C3D"/>
<path d="M28.5999 168.85L2.43095 167.75C2.43095 167.75 -1.79305 156.211 0.956946 147.95C3.62995 139.876 4.25695 133.221 9.42695 130.647C14.5969 128.073 79.827 120.329 79.827 120.329L123.2 100.76L125.928 101.398C125.928 101.398 92.268 121.385 94.105 122.485C95.942 123.585 161.865 122.122 178.068 120.648C186.897 119.964 195.648 118.491 204.215 116.248C204.215 116.248 228.525 114.774 241.417 117.348C254.309 119.922 268.664 122.848 268.664 122.848C270.907 127.907 272.514 133.224 273.449 138.677C274.923 147.477 276.397 155.617 271.249 160.039C266.101 164.461 241.428 167.409 241.428 167.409C241.428 167.409 188.76 171.457 146.41 171.457C104.06 171.457 28.5999 168.85 28.5999 168.85Z" fill="#2B2A25"/>
<path d="M273.471 138.688C272.536 133.234 270.929 127.917 268.686 122.859C268.686 122.859 254.32 119.911 241.439 117.359C228.558 114.807 204.237 116.259 204.237 116.259C195.67 118.502 186.919 119.974 178.09 120.659C161.887 122.133 95.9751 123.607 94.1271 122.496C92.2791 121.385 127.127 101.013 127.127 101.013L123.277 100.397L79.7721 120.274C79.7721 120.274 14.5861 127.974 9.42706 130.592C4.26806 133.21 3.58606 140.184 0.957063 147.95C-1.85894 156.189 2.43106 167.75 2.43106 167.75L28.6001 168.85L33.5831 169.015C31.3303 165.961 29.8339 162.416 29.2166 158.671C28.5994 154.927 28.8789 151.089 30.0323 147.473C31.1857 143.858 33.18 140.567 35.8516 137.871C38.5231 135.176 41.7959 133.152 45.4011 131.967C49.0063 130.781 52.8413 130.467 56.5913 131.051C60.3413 131.635 63.8994 133.1 66.9736 135.325C70.0478 137.551 72.5504 140.473 74.2762 143.854C76.0019 147.234 76.9015 150.975 76.9011 154.77V154.924C76.9599 160.423 75.1659 165.782 71.8081 170.137C95.9421 170.786 125.323 171.424 146.443 171.424C163.152 171.424 181.467 170.797 197.516 170.027C195.068 167.056 193.371 163.539 192.567 159.775C191.763 156.01 191.877 152.107 192.899 148.395C193.92 144.683 195.82 141.272 198.436 138.448C201.053 135.625 204.311 133.472 207.935 132.172C211.558 130.872 215.441 130.463 219.257 130.979C223.072 131.494 226.706 132.92 229.855 135.136C233.003 137.352 235.572 140.292 237.345 143.71C239.118 147.127 240.043 150.92 240.042 154.77V154.924C240.07 159.434 238.873 163.868 236.577 167.75L241.439 167.398C241.439 167.398 266.112 164.45 271.26 160.05C276.408 155.65 275 147.532 273.471 138.688Z" fill="#ED1C24"/>
<path d="M219.45 155.133C219.45 155.69 219.285 156.234 218.975 156.697C218.666 157.16 218.226 157.521 217.712 157.735C217.197 157.948 216.631 158.003 216.084 157.895C215.538 157.786 215.036 157.518 214.643 157.124C214.249 156.73 213.981 156.229 213.872 155.682C213.763 155.136 213.819 154.57 214.032 154.055C214.245 153.541 214.606 153.101 215.069 152.791C215.532 152.482 216.077 152.317 216.634 152.317C217.381 152.317 218.097 152.614 218.625 153.142C219.153 153.67 219.45 154.386 219.45 155.133Z" fill="#B7B29E"/>
<path d="M79.7722 120.274C80.6144 121.26 81.7397 121.963 82.9952 122.287C85.1952 122.628 86.5042 123.189 90.4092 120.923C94.3142 118.657 124.696 101.343 124.696 101.343L121.759 101.057C121.759 101.057 100.474 109.857 96.4592 111.76C92.4442 113.663 79.7722 120.274 79.7722 120.274Z" fill="#0E0E35"/>
<path d="M272.558 127.842C272.558 127.842 265.166 127.677 264.297 127.677C263.73 127.726 263.199 127.974 262.797 128.376C262.394 128.779 262.146 129.31 262.097 129.877C262.097 131.087 262.757 138.809 262.966 139.777C263.214 140.378 263.642 140.887 264.192 141.234C264.742 141.581 265.386 141.748 266.035 141.713C267.564 141.713 274.989 141.977 274.989 141.977L272.558 127.842Z" fill="#B52C1A"/>
<path d="M263.989 129.206L264.77 139.909H267.905L267.124 129.096L263.989 129.206Z" fill="#F23325"/>
<path d="M65.5933 128.744C65.5933 128.744 82.5003 143.11 83.6003 142.747C84.7003 142.384 183.403 133.947 183.403 133.947L188.562 125.477L65.5933 128.744Z" fill="#C41623"/>
<path d="M176.572 130.185C176.593 130.554 176.467 130.916 176.222 131.192C175.977 131.469 175.632 131.636 175.263 131.659L163.779 132.308C163.41 132.329 163.048 132.203 162.772 131.958C162.495 131.713 162.328 131.368 162.305 130.999C162.284 130.63 162.41 130.268 162.655 129.992C162.9 129.716 163.245 129.548 163.614 129.525L175.109 128.865C175.292 128.855 175.475 128.881 175.648 128.942C175.821 129.002 175.98 129.097 176.116 129.22C176.252 129.343 176.362 129.491 176.441 129.657C176.519 129.822 176.564 130.002 176.572 130.185Z" fill="#ED1C24"/>
<path d="M3.35498 153.45L5.92898 162.657H18.084C18.084 162.657 20.284 163.757 20.284 159.357C20.3069 158.108 20.0547 156.869 19.5452 155.728C19.0357 154.588 18.2815 153.573 17.336 152.757L3.35498 153.45Z" fill="#C41623"/>
<path d="M263.065 100.65C263.067 100.971 262.974 101.285 262.797 101.552C262.62 101.82 262.368 102.029 262.072 102.153C261.776 102.277 261.45 102.309 261.135 102.247C260.821 102.185 260.531 102.031 260.305 101.804C260.078 101.578 259.924 101.288 259.862 100.974C259.8 100.659 259.833 100.333 259.956 100.037C260.08 99.7412 260.289 99.4888 260.557 99.3119C260.824 99.1351 261.138 99.0418 261.459 99.044C261.885 99.044 262.293 99.2132 262.595 99.5144C262.896 99.8156 263.065 100.224 263.065 100.65Z" fill="white"/>
<path d="M235.317 176.516C245.635 166.198 245.635 149.468 235.317 139.15C224.998 128.831 208.269 128.831 197.951 139.15C187.632 149.468 187.632 166.198 197.951 176.516C208.269 186.835 224.998 186.835 235.317 176.516Z" fill="#0E0E35"/>
<path opacity="0.8" d="M232.52 164.912C236.23 156.139 232.125 146.019 223.351 142.309C214.578 138.599 204.458 142.704 200.748 151.478C197.038 160.252 201.143 170.372 209.917 174.081C218.691 177.791 228.811 173.686 232.52 164.912Z" fill="white"/>
<path d="M225.099 165.994C229.605 161.488 229.605 154.182 225.099 149.676C220.593 145.169 213.286 145.169 208.78 149.676C204.274 154.182 204.274 161.488 208.78 165.994C213.286 170.501 220.593 170.501 225.099 165.994Z" fill="white"/>
<path d="M216.942 161.073C218.734 161.073 220.187 159.62 220.187 157.828C220.187 156.036 218.734 154.583 216.942 154.583C215.15 154.583 213.697 156.036 213.697 157.828C213.697 159.62 215.15 161.073 216.942 161.073Z" fill="#0E0E35"/>
<path d="M72.5212 176.491C82.8396 166.173 82.8396 149.443 72.5212 139.125C62.2028 128.807 45.4733 128.807 35.1549 139.125C24.8364 149.443 24.8364 166.173 35.1549 176.491C45.4733 186.81 62.2028 186.81 72.5212 176.491Z" fill="#0E0E35"/>
<path opacity="0.8" d="M69.7636 164.816C73.429 156.024 69.2726 145.925 60.4802 142.259C51.6878 138.594 41.5889 142.75 37.9235 151.543C34.2582 160.335 38.4145 170.434 47.2069 174.1C55.9993 177.765 66.0983 173.609 69.7636 164.816Z" fill="white"/>
<path d="M62.3109 165.962C66.8172 161.456 66.8172 154.15 62.3109 149.643C57.8047 145.137 50.4986 145.137 45.9923 149.643C41.4861 154.15 41.4861 161.456 45.9923 165.962C50.4986 170.468 57.8047 170.468 62.3109 165.962Z" fill="white"/>
<path d="M54.153 161.051C55.9451 161.051 57.398 159.598 57.398 157.806C57.398 156.014 55.9451 154.561 54.153 154.561C52.3608 154.561 50.908 156.014 50.908 157.806C50.908 159.598 52.3608 161.051 54.153 161.051Z" fill="#0E0E35"/>
<path opacity="0.8" d="M152.9 161.15L171.061 160.798C171.728 160.786 172.373 161.038 172.855 161.5C173.337 161.961 173.618 162.595 173.635 163.262C173.644 163.929 173.389 164.573 172.925 165.053C172.462 165.533 171.827 165.81 171.16 165.825L152.999 166.177C152.669 166.184 152.34 166.126 152.032 166.006C151.725 165.886 151.444 165.706 151.205 165.477C150.967 165.248 150.777 164.975 150.645 164.672C150.513 164.369 150.442 164.043 150.436 163.713C150.429 163.382 150.487 163.054 150.607 162.746C150.727 162.438 150.906 162.157 151.135 161.919C151.364 161.681 151.638 161.491 151.941 161.358C152.244 161.226 152.57 161.155 152.9 161.15Z" fill="white"/>
<path opacity="0.8" d="M177.969 160.633L182.721 160.545C183.389 160.536 184.034 160.791 184.516 161.254C184.998 161.718 185.278 162.352 185.295 163.02C185.292 163.681 185.032 164.315 184.57 164.787C184.108 165.259 183.48 165.533 182.82 165.55L178.068 165.638C177.738 165.645 177.409 165.587 177.101 165.467C176.794 165.347 176.512 165.168 176.274 164.939C176.036 164.71 175.846 164.436 175.714 164.133C175.582 163.83 175.511 163.504 175.505 163.174C175.505 162.513 175.762 161.878 176.222 161.404C176.682 160.93 177.308 160.653 177.969 160.633Z" fill="white"/>
<path d="M272.283 133.969C272.281 134.286 272.185 134.596 272.007 134.858C271.829 135.121 271.578 135.325 271.284 135.445C270.99 135.565 270.668 135.595 270.357 135.532C270.046 135.469 269.761 135.315 269.538 135.09C269.314 134.865 269.162 134.579 269.101 134.267C269.04 133.956 269.072 133.634 269.194 133.341C269.316 133.048 269.522 132.798 269.786 132.622C270.05 132.446 270.36 132.352 270.677 132.352C270.889 132.352 271.099 132.394 271.294 132.475C271.49 132.557 271.667 132.676 271.817 132.826C271.966 132.977 272.084 133.155 272.164 133.351C272.244 133.547 272.284 133.757 272.283 133.969Z" fill="white"/>
<path d="M11.8691 146.85C14.6301 147.213 18.2271 146.454 23.0561 143.11C27.3571 140.129 32.2081 139.359 30.9541 136.741C29.7001 134.123 22.3301 129.25 15.0811 131.747C8.82206 133.947 6.54506 138.347 6.63306 141.46C6.68203 142.848 7.24495 144.168 8.21253 145.164C9.18011 146.16 10.4833 146.761 11.8691 146.85Z" fill="#C41623"/>
<path d="M26.4 135.927C26.4924 135.727 26.6324 135.553 26.8079 135.42C26.9834 135.287 27.1889 135.2 27.4062 135.165C27.6236 135.13 27.8462 135.149 28.0544 135.221C28.2626 135.292 28.4499 135.414 28.6 135.575C29.161 135.993 29.843 136.73 29.414 137.588C29.0834 138.122 28.6424 138.578 28.1206 138.927C27.5989 139.277 27.0084 139.51 26.389 139.612C24.2 140.008 25.773 136.818 26.4 135.927Z" fill="#ED1C24"/>
<path opacity="0.8" d="M26.4 135.927C26.4924 135.727 26.6324 135.553 26.8079 135.42C26.9834 135.287 27.1889 135.2 27.4062 135.165C27.6236 135.13 27.8462 135.149 28.0544 135.221C28.2626 135.292 28.4499 135.414 28.6 135.575C29.161 135.993 29.843 136.73 29.414 137.588C29.0834 138.122 28.6424 138.578 28.1206 138.927C27.5989 139.277 27.0084 139.51 26.389 139.612C24.2 140.008 25.773 136.818 26.4 135.927Z" fill="#ED1C24"/>
<path d="M22.528 134.189C23.1398 134.486 23.6494 134.959 23.9921 135.546C24.3349 136.134 24.4953 136.81 24.453 137.489C24.073 139.023 23.2506 140.412 22.088 141.482C20.8128 142.889 19.2276 143.981 17.4579 144.67C15.6881 145.359 13.7822 145.627 11.891 145.453C11.0344 145.385 10.2056 145.118 9.471 144.672C8.65598 144.13 8.07475 143.302 7.843 142.351C6.743 137.632 11.814 134.123 14.74 133.221C16.6259 132.622 18.6511 132.622 20.537 133.221C21.2374 133.462 21.9059 133.787 22.528 134.189Z" fill="#D268CC"/>
<path d="M22.528 134.189C23.1398 134.486 23.6494 134.959 23.9921 135.546C24.3349 136.134 24.4953 136.81 24.453 137.489C24.073 139.023 23.2506 140.412 22.088 141.482C20.8128 142.889 19.2276 143.981 17.4579 144.67C15.6881 145.359 13.7822 145.627 11.891 145.453C11.0344 145.385 10.2056 145.118 9.471 144.672C8.65598 144.13 8.07475 143.302 7.843 142.351C6.743 137.632 11.814 134.123 14.74 133.221C16.6259 132.622 18.6511 132.622 20.537 133.221C21.2374 133.462 21.9059 133.787 22.528 134.189Z" fill="#70C1BF"/>
<path opacity="0.45" d="M19.2061 142.692C18.4706 143.097 17.6871 143.407 16.8741 143.616C16.4311 143.794 15.9384 143.803 15.4887 143.643C15.039 143.483 14.6632 143.165 14.4321 142.747C13.4751 140.547 16.0051 137.038 17.3471 135.982C17.9813 135.433 18.7764 135.104 19.6132 135.044C20.45 134.985 21.2835 135.198 21.9891 135.652C25.4541 138.05 20.9001 141.713 19.2061 142.692Z" fill="white"/>
<g opacity="0.8">
<path d="M249.909 122.452L255.409 123.409C255.957 123.503 256.445 123.811 256.767 124.265C257.089 124.718 257.217 125.281 257.125 125.829C257.028 126.376 256.72 126.862 256.267 127.184C255.814 127.505 255.253 127.635 254.705 127.545L249.205 126.588C248.659 126.491 248.173 126.183 247.854 125.729C247.535 125.276 247.407 124.715 247.5 124.168C247.597 123.624 247.904 123.139 248.354 122.818C248.804 122.497 249.363 122.366 249.909 122.452Z" fill="white"/>
<path d="M244.882 121.55C245.43 121.647 245.918 121.957 246.237 122.413C246.557 122.869 246.683 123.433 246.587 123.981C246.49 124.527 246.182 125.013 245.728 125.332C245.275 125.652 244.714 125.779 244.167 125.686C243.62 125.589 243.134 125.281 242.813 124.828C242.491 124.375 242.361 123.814 242.451 123.266C242.55 122.719 242.861 122.232 243.316 121.911C243.77 121.59 244.333 121.461 244.882 121.55Z" fill="white"/>
</g>
<path d="M104.962 60.5773L76.4941 48.2793L48.0261 60.5773C48.0261 60.5773 41.8111 96.8773 75.9991 115.357L76.4941 115.104L76.9781 115.357C111.177 96.9213 104.962 60.5773 104.962 60.5773Z" fill="#2B3990"/>
<path d="M100.309 64.0528L76.4941 53.7568L52.6791 64.0528C52.6791 64.0528 47.4761 94.4568 76.0761 109.879L76.4941 109.67L76.9011 109.879C105.512 94.4568 100.309 64.0528 100.309 64.0528Z" fill="#262262"/>
<path d="M105.336 59.9501L85.5358 51.403L77.0548 47.7401C76.8092 47.6453 76.5447 47.6098 76.2828 47.6366C76.021 47.6634 75.7691 47.7516 75.5478 47.8941L71.9508 49.445L48.8508 59.411C48.4328 59.587 47.3548 59.8401 47.2558 60.4011C47.1568 60.9621 47.1348 61.2481 47.0908 61.6771C46.8249 64.0726 46.7293 66.484 46.8048 68.8931C46.984 77.1388 48.9348 85.2496 52.5248 92.675C54.9081 97.5138 58.0497 101.94 61.8308 105.787C63.9104 107.906 66.1621 109.848 68.5628 111.595C69.9378 112.607 71.3788 113.553 72.8418 114.444C73.6008 114.906 74.3818 115.357 75.1738 115.786C75.9658 116.215 76.0868 116.127 76.8128 115.786H76.1198C76.8458 116.16 77.0328 116.215 77.7588 115.786C78.4848 115.357 79.3208 114.906 80.0908 114.444C81.6748 113.487 83.2148 112.442 84.6998 111.342C87.2777 109.44 89.6815 107.312 91.8828 104.984C95.75 100.854 98.8991 96.1062 101.2 90.937C104.607 83.236 106.286 74.8816 106.117 66.462C106.122 64.4254 105.968 62.3915 105.655 60.3791C105.501 59.444 104.082 59.8401 104.236 60.7751C104.841 65.2979 104.841 69.8812 104.236 74.4041C103.097 84.6681 98.9488 94.3662 92.3118 102.278C87.8819 107.348 82.562 111.564 76.6148 114.719H77.3518C77.1048 114.527 76.801 114.423 76.4883 114.423C76.1756 114.423 75.8718 114.527 75.6248 114.719H76.3728C65.2738 108.68 56.4628 99.385 51.9418 87.516C49.1668 80.1234 47.9606 72.2342 48.3998 64.3501C48.3998 63.4041 48.5208 62.4691 48.6308 61.5341C48.6308 61.1821 48.6308 61.16 48.6968 60.973C48.7738 60.489 48.7738 60.9731 48.4108 61.1711L55.6158 58.058L76.7468 48.9501H76.8678H76.1198L104.588 61.248C105.446 61.589 106.205 60.3131 105.336 59.9501Z" fill="#262262"/>
<path d="M70.257 81.4659L75.361 84.5899L81.961 73.8539C83.501 71.3459 87.384 73.7219 85.855 76.2299C85.437 76.9009 76.901 90.8489 76.901 90.8489L67.914 85.3489C65.373 83.8199 67.749 79.9259 70.257 81.4659Z" fill="white"/>
<path opacity="0.17" d="M76.23 47.6411C76.002 47.6981 75.7807 47.7792 75.57 47.8831L71.973 49.4341L48.873 59.4001C48.455 59.5761 47.377 59.8291 47.278 60.3901C47.179 60.9511 47.157 61.2371 47.113 61.6661C46.8471 64.0617 46.7515 66.473 46.827 68.8821C47.0062 77.1279 48.957 85.2387 52.547 92.6641C54.9303 97.5028 58.072 101.929 61.853 105.776C63.9326 107.895 66.1843 109.838 68.585 111.584C69.96 112.596 71.401 113.542 72.864 114.433C73.623 114.895 74.404 115.346 75.196 115.775C75.3362 115.884 75.4979 115.962 75.6705 116.004C75.8431 116.045 76.0225 116.05 76.197 116.017L76.23 47.6411Z" fill="white"/>
</g>
<defs>
<clipPath id="clip0_1367_4821">
<rect width="275" height="184.25" fill="white"/>
</clipPath>
</defs>
</svg>
